<mxfile host="app.diagrams.net" modified="2022-03-21T10:11:42.800Z" agent="5.0 (Windows NT 10.0; Win64; x64) AppleWebKit/537.36 (KHTML, like Gecko) Chrome/99.0.4844.74 Safari/537.36" etag="7yaYhNcSE6qLoSAxuEe4" version="17.1.3" type="github">
  <diagram id="BnS27pVrS36JY-UFadmb" name="Page-1">
    <mxGraphModel dx="1038" dy="546" grid="1" gridSize="10" guides="1" tooltips="1" connect="1" arrows="1" fold="1" page="1" pageScale="1" pageWidth="827" pageHeight="1169" math="0" shadow="0">
      <root>
        <mxCell id="0" />
        <mxCell id="1" parent="0" />
        <mxCell id="piuvEJgIPPBP0Wa2WV8D-1" style="edgeStyle=orthogonalEdgeStyle;rounded=0;orthogonalLoop=1;jettySize=auto;html=1;exitX=0.5;exitY=1;exitDx=0;exitDy=0;" parent="1" source="piuvEJgIPPBP0Wa2WV8D-2" edge="1">
          <mxGeometry relative="1" as="geometry">
            <mxPoint x="260" y="100" as="targetPoint" />
          </mxGeometry>
        </mxCell>
        <mxCell id="piuvEJgIPPBP0Wa2WV8D-2" value="svr1&lt;br&gt;服务" style="rounded=0;whiteSpace=wrap;html=1;" parent="1" vertex="1">
          <mxGeometry x="200" y="10" width="120" height="60" as="geometry" />
        </mxCell>
        <mxCell id="piuvEJgIPPBP0Wa2WV8D-3" style="edgeStyle=orthogonalEdgeStyle;rounded=0;orthogonalLoop=1;jettySize=auto;html=1;exitX=0.5;exitY=1;exitDx=0;exitDy=0;entryX=0;entryY=0.5;entryDx=0;entryDy=0;" parent="1" source="piuvEJgIPPBP0Wa2WV8D-4" edge="1">
          <mxGeometry relative="1" as="geometry">
            <mxPoint x="360" y="200" as="targetPoint" />
            <Array as="points">
              <mxPoint x="260" y="200" />
            </Array>
          </mxGeometry>
        </mxCell>
        <mxCell id="piuvEJgIPPBP0Wa2WV8D-4" value="git push" style="rhombus;whiteSpace=wrap;html=1;fillColor=#f5f5f5;fontColor=#333333;strokeColor=#666666;" parent="1" vertex="1">
          <mxGeometry x="220" y="100" width="80" height="40" as="geometry" />
        </mxCell>
        <mxCell id="piuvEJgIPPBP0Wa2WV8D-5" style="edgeStyle=orthogonalEdgeStyle;rounded=0;orthogonalLoop=1;jettySize=auto;html=1;exitX=0.5;exitY=1;exitDx=0;exitDy=0;" parent="1" source="piuvEJgIPPBP0Wa2WV8D-6" edge="1">
          <mxGeometry relative="1" as="geometry">
            <mxPoint x="420" y="100" as="targetPoint" />
          </mxGeometry>
        </mxCell>
        <mxCell id="piuvEJgIPPBP0Wa2WV8D-6" value="svr2&lt;br&gt;服务" style="rounded=0;whiteSpace=wrap;html=1;" parent="1" vertex="1">
          <mxGeometry x="360" y="10" width="120" height="60" as="geometry" />
        </mxCell>
        <mxCell id="piuvEJgIPPBP0Wa2WV8D-7" style="edgeStyle=orthogonalEdgeStyle;rounded=0;orthogonalLoop=1;jettySize=auto;html=1;exitX=0.5;exitY=1;exitDx=0;exitDy=0;entryX=0.5;entryY=0;entryDx=0;entryDy=0;" parent="1" source="piuvEJgIPPBP0Wa2WV8D-8" edge="1">
          <mxGeometry relative="1" as="geometry">
            <mxPoint x="420" y="170" as="targetPoint" />
          </mxGeometry>
        </mxCell>
        <mxCell id="piuvEJgIPPBP0Wa2WV8D-8" value="git push" style="rhombus;whiteSpace=wrap;html=1;fillColor=#f5f5f5;fontColor=#333333;strokeColor=#666666;" parent="1" vertex="1">
          <mxGeometry x="380" y="100" width="80" height="40" as="geometry" />
        </mxCell>
        <mxCell id="piuvEJgIPPBP0Wa2WV8D-9" style="edgeStyle=orthogonalEdgeStyle;rounded=0;orthogonalLoop=1;jettySize=auto;html=1;exitX=0.5;exitY=1;exitDx=0;exitDy=0;" parent="1" source="piuvEJgIPPBP0Wa2WV8D-10" edge="1">
          <mxGeometry relative="1" as="geometry">
            <mxPoint x="580" y="100" as="targetPoint" />
          </mxGeometry>
        </mxCell>
        <mxCell id="piuvEJgIPPBP0Wa2WV8D-10" value="svr3&lt;br&gt;服务" style="rounded=0;whiteSpace=wrap;html=1;" parent="1" vertex="1">
          <mxGeometry x="520" y="10" width="120" height="60" as="geometry" />
        </mxCell>
        <mxCell id="piuvEJgIPPBP0Wa2WV8D-11" style="edgeStyle=orthogonalEdgeStyle;rounded=0;orthogonalLoop=1;jettySize=auto;html=1;exitX=0.5;exitY=1;exitDx=0;exitDy=0;entryX=1;entryY=0.5;entryDx=0;entryDy=0;" parent="1" source="piuvEJgIPPBP0Wa2WV8D-12" edge="1">
          <mxGeometry relative="1" as="geometry">
            <mxPoint x="480" y="200" as="targetPoint" />
            <Array as="points">
              <mxPoint x="580" y="200" />
            </Array>
          </mxGeometry>
        </mxCell>
        <mxCell id="piuvEJgIPPBP0Wa2WV8D-12" value="git push" style="rhombus;whiteSpace=wrap;html=1;fillColor=#f5f5f5;fontColor=#333333;strokeColor=#666666;" parent="1" vertex="1">
          <mxGeometry x="540" y="100" width="80" height="40" as="geometry" />
        </mxCell>
        <mxCell id="piuvEJgIPPBP0Wa2WV8D-13" style="edgeStyle=orthogonalEdgeStyle;rounded=0;orthogonalLoop=1;jettySize=auto;html=1;exitX=0.5;exitY=1;exitDx=0;exitDy=0;" parent="1" edge="1">
          <mxGeometry relative="1" as="geometry">
            <mxPoint x="420" y="260" as="targetPoint" />
            <mxPoint x="420" y="230" as="sourcePoint" />
          </mxGeometry>
        </mxCell>
        <mxCell id="piuvEJgIPPBP0Wa2WV8D-14" style="edgeStyle=orthogonalEdgeStyle;rounded=0;orthogonalLoop=1;jettySize=auto;html=1;exitX=0.5;exitY=1;exitDx=0;exitDy=0;startArrow=none;fillColor=#f5f5f5;strokeColor=#666666;" parent="1" source="piuvEJgIPPBP0Wa2WV8D-17" edge="1">
          <mxGeometry relative="1" as="geometry">
            <mxPoint x="419.5" y="350" as="targetPoint" />
            <mxPoint x="419.5" y="320" as="sourcePoint" />
          </mxGeometry>
        </mxCell>
        <mxCell id="piuvEJgIPPBP0Wa2WV8D-15" value="gitlab-runner" style="shape=process;whiteSpace=wrap;html=1;backgroundOutline=1;" parent="1" vertex="1">
          <mxGeometry x="360" y="260" width="120" height="60" as="geometry" />
        </mxCell>
        <mxCell id="piuvEJgIPPBP0Wa2WV8D-16" value="Gitlab&lt;br&gt;代码仓库" style="ellipse;whiteSpace=wrap;html=1;" parent="1" vertex="1">
          <mxGeometry x="360" y="170" width="120" height="60" as="geometry" />
        </mxCell>
        <mxCell id="piuvEJgIPPBP0Wa2WV8D-17" value="读取&lt;br&gt;.gitlab-ci.yml" style="rhombus;whiteSpace=wrap;html=1;fillColor=#f5f5f5;fontColor=#333333;strokeColor=#666666;" parent="1" vertex="1">
          <mxGeometry x="355" y="340" width="130" height="40" as="geometry" />
        </mxCell>
        <mxCell id="piuvEJgIPPBP0Wa2WV8D-18" value="" style="edgeStyle=orthogonalEdgeStyle;rounded=0;orthogonalLoop=1;jettySize=auto;html=1;exitX=0.5;exitY=1;exitDx=0;exitDy=0;endArrow=none;" parent="1" target="piuvEJgIPPBP0Wa2WV8D-17" edge="1">
          <mxGeometry relative="1" as="geometry">
            <mxPoint x="419.5" y="350" as="targetPoint" />
            <mxPoint x="419.5" y="320" as="sourcePoint" />
          </mxGeometry>
        </mxCell>
        <mxCell id="piuvEJgIPPBP0Wa2WV8D-19" style="edgeStyle=orthogonalEdgeStyle;rounded=0;orthogonalLoop=1;jettySize=auto;html=1;exitX=0.5;exitY=1;exitDx=0;exitDy=0;" parent="1" source="piuvEJgIPPBP0Wa2WV8D-20" edge="1">
          <mxGeometry relative="1" as="geometry">
            <mxPoint x="260" y="100" as="targetPoint" />
          </mxGeometry>
        </mxCell>
        <mxCell id="piuvEJgIPPBP0Wa2WV8D-20" value="project1&lt;br&gt;工程" style="rounded=0;whiteSpace=wrap;html=1;fillColor=#fff2cc;strokeColor=#d6b656;" parent="1" vertex="1">
          <mxGeometry x="200" y="10" width="120" height="60" as="geometry" />
        </mxCell>
        <mxCell id="piuvEJgIPPBP0Wa2WV8D-21" style="edgeStyle=orthogonalEdgeStyle;rounded=0;orthogonalLoop=1;jettySize=auto;html=1;exitX=0.5;exitY=1;exitDx=0;exitDy=0;entryX=0;entryY=0.5;entryDx=0;entryDy=0;" parent="1" source="piuvEJgIPPBP0Wa2WV8D-22" edge="1">
          <mxGeometry relative="1" as="geometry">
            <mxPoint x="360" y="200" as="targetPoint" />
            <Array as="points">
              <mxPoint x="260" y="200" />
            </Array>
          </mxGeometry>
        </mxCell>
        <mxCell id="piuvEJgIPPBP0Wa2WV8D-22" value="git push" style="rhombus;whiteSpace=wrap;html=1;fillColor=#f5f5f5;fontColor=#333333;strokeColor=#666666;" parent="1" vertex="1">
          <mxGeometry x="220" y="100" width="80" height="40" as="geometry" />
        </mxCell>
        <mxCell id="piuvEJgIPPBP0Wa2WV8D-23" style="edgeStyle=orthogonalEdgeStyle;rounded=0;orthogonalLoop=1;jettySize=auto;html=1;exitX=0.5;exitY=1;exitDx=0;exitDy=0;" parent="1" source="piuvEJgIPPBP0Wa2WV8D-24" edge="1">
          <mxGeometry relative="1" as="geometry">
            <mxPoint x="420" y="100" as="targetPoint" />
          </mxGeometry>
        </mxCell>
        <mxCell id="piuvEJgIPPBP0Wa2WV8D-24" value="project2&lt;br&gt;工程" style="rounded=0;whiteSpace=wrap;html=1;fillColor=#fff2cc;strokeColor=#d6b656;" parent="1" vertex="1">
          <mxGeometry x="360" y="10" width="120" height="60" as="geometry" />
        </mxCell>
        <mxCell id="piuvEJgIPPBP0Wa2WV8D-25" style="edgeStyle=orthogonalEdgeStyle;rounded=0;orthogonalLoop=1;jettySize=auto;html=1;exitX=0.5;exitY=1;exitDx=0;exitDy=0;entryX=0.5;entryY=0;entryDx=0;entryDy=0;" parent="1" source="piuvEJgIPPBP0Wa2WV8D-26" edge="1">
          <mxGeometry relative="1" as="geometry">
            <mxPoint x="420" y="170" as="targetPoint" />
          </mxGeometry>
        </mxCell>
        <mxCell id="piuvEJgIPPBP0Wa2WV8D-26" value="git push" style="rhombus;whiteSpace=wrap;html=1;fillColor=#f5f5f5;fontColor=#333333;strokeColor=#666666;" parent="1" vertex="1">
          <mxGeometry x="380" y="100" width="80" height="40" as="geometry" />
        </mxCell>
        <mxCell id="piuvEJgIPPBP0Wa2WV8D-27" style="edgeStyle=orthogonalEdgeStyle;rounded=0;orthogonalLoop=1;jettySize=auto;html=1;exitX=0.5;exitY=1;exitDx=0;exitDy=0;" parent="1" source="piuvEJgIPPBP0Wa2WV8D-28" edge="1">
          <mxGeometry relative="1" as="geometry">
            <mxPoint x="580" y="100" as="targetPoint" />
          </mxGeometry>
        </mxCell>
        <mxCell id="piuvEJgIPPBP0Wa2WV8D-28" value="projectN&lt;br&gt;工程" style="rounded=0;whiteSpace=wrap;html=1;fillColor=#fff2cc;strokeColor=#d6b656;" parent="1" vertex="1">
          <mxGeometry x="520" y="10" width="120" height="60" as="geometry" />
        </mxCell>
        <mxCell id="piuvEJgIPPBP0Wa2WV8D-29" style="edgeStyle=orthogonalEdgeStyle;rounded=0;orthogonalLoop=1;jettySize=auto;html=1;exitX=0.5;exitY=1;exitDx=0;exitDy=0;entryX=1;entryY=0.5;entryDx=0;entryDy=0;" parent="1" source="piuvEJgIPPBP0Wa2WV8D-30" edge="1">
          <mxGeometry relative="1" as="geometry">
            <mxPoint x="480" y="200" as="targetPoint" />
            <Array as="points">
              <mxPoint x="580" y="200" />
            </Array>
          </mxGeometry>
        </mxCell>
        <mxCell id="piuvEJgIPPBP0Wa2WV8D-30" value="git push" style="rhombus;whiteSpace=wrap;html=1;fillColor=#f5f5f5;fontColor=#333333;strokeColor=#666666;" parent="1" vertex="1">
          <mxGeometry x="540" y="100" width="80" height="40" as="geometry" />
        </mxCell>
        <mxCell id="piuvEJgIPPBP0Wa2WV8D-31" style="edgeStyle=orthogonalEdgeStyle;rounded=0;orthogonalLoop=1;jettySize=auto;html=1;exitX=0.5;exitY=1;exitDx=0;exitDy=0;" parent="1" edge="1">
          <mxGeometry relative="1" as="geometry">
            <mxPoint x="420" y="260" as="targetPoint" />
            <mxPoint x="420" y="230" as="sourcePoint" />
          </mxGeometry>
        </mxCell>
        <mxCell id="piuvEJgIPPBP0Wa2WV8D-32" style="edgeStyle=orthogonalEdgeStyle;rounded=0;orthogonalLoop=1;jettySize=auto;html=1;exitX=0.5;exitY=1;exitDx=0;exitDy=0;startArrow=none;fillColor=#f5f5f5;strokeColor=#666666;" parent="1" source="piuvEJgIPPBP0Wa2WV8D-45" edge="1">
          <mxGeometry relative="1" as="geometry">
            <mxPoint x="419.5" y="350" as="targetPoint" />
            <mxPoint x="419.5" y="320" as="sourcePoint" />
          </mxGeometry>
        </mxCell>
        <mxCell id="piuvEJgIPPBP0Wa2WV8D-33" value="gitlab-runner" style="shape=process;whiteSpace=wrap;html=1;backgroundOutline=1;fillColor=#dae8fc;strokeColor=#6c8ebf;" parent="1" vertex="1">
          <mxGeometry x="360" y="260" width="120" height="60" as="geometry" />
        </mxCell>
        <mxCell id="piuvEJgIPPBP0Wa2WV8D-34" value="Gitlab&lt;br&gt;代码仓库" style="ellipse;whiteSpace=wrap;html=1;fillColor=#fad7ac;strokeColor=#b46504;" parent="1" vertex="1">
          <mxGeometry x="360" y="170" width="120" height="60" as="geometry" />
        </mxCell>
        <mxCell id="piuvEJgIPPBP0Wa2WV8D-35" style="edgeStyle=orthogonalEdgeStyle;rounded=0;orthogonalLoop=1;jettySize=auto;html=1;exitX=0.5;exitY=1;exitDx=0;exitDy=0;entryX=0.5;entryY=0;entryDx=0;entryDy=0;fillColor=#fad9d5;strokeColor=#ae4132;" parent="1" source="piuvEJgIPPBP0Wa2WV8D-37" target="piuvEJgIPPBP0Wa2WV8D-40" edge="1">
          <mxGeometry relative="1" as="geometry" />
        </mxCell>
        <mxCell id="piuvEJgIPPBP0Wa2WV8D-36" style="edgeStyle=orthogonalEdgeStyle;rounded=0;orthogonalLoop=1;jettySize=auto;html=1;exitX=1;exitY=0.5;exitDx=0;exitDy=0;fillColor=#fad9d5;strokeColor=#ae4132;" parent="1" source="piuvEJgIPPBP0Wa2WV8D-37" edge="1">
          <mxGeometry relative="1" as="geometry">
            <mxPoint x="480" y="540" as="targetPoint" />
          </mxGeometry>
        </mxCell>
        <mxCell id="piuvEJgIPPBP0Wa2WV8D-37" value="test&lt;br&gt;测试" style="rhombus;whiteSpace=wrap;html=1;fillColor=#fad9d5;strokeColor=#ae4132;" parent="1" vertex="1">
          <mxGeometry x="380" y="500" width="80" height="80" as="geometry" />
        </mxCell>
        <mxCell id="piuvEJgIPPBP0Wa2WV8D-38" style="edgeStyle=orthogonalEdgeStyle;rounded=0;orthogonalLoop=1;jettySize=auto;html=1;exitX=0.5;exitY=1;exitDx=0;exitDy=0;entryX=0.5;entryY=0;entryDx=0;entryDy=0;fillColor=#fad9d5;strokeColor=#ae4132;" parent="1" source="piuvEJgIPPBP0Wa2WV8D-40" target="piuvEJgIPPBP0Wa2WV8D-43" edge="1">
          <mxGeometry relative="1" as="geometry" />
        </mxCell>
        <mxCell id="piuvEJgIPPBP0Wa2WV8D-39" style="edgeStyle=orthogonalEdgeStyle;rounded=0;orthogonalLoop=1;jettySize=auto;html=1;exitX=1;exitY=0.5;exitDx=0;exitDy=0;fillColor=#fad9d5;strokeColor=#ae4132;" parent="1" source="piuvEJgIPPBP0Wa2WV8D-40" edge="1">
          <mxGeometry relative="1" as="geometry">
            <mxPoint x="480" y="635" as="targetPoint" />
          </mxGeometry>
        </mxCell>
        <mxCell id="piuvEJgIPPBP0Wa2WV8D-40" value="build&lt;br&gt;构建" style="rhombus;whiteSpace=wrap;html=1;fillColor=#fad9d5;strokeColor=#ae4132;" parent="1" vertex="1">
          <mxGeometry x="380" y="595" width="80" height="80" as="geometry" />
        </mxCell>
        <mxCell id="piuvEJgIPPBP0Wa2WV8D-41" style="edgeStyle=orthogonalEdgeStyle;rounded=0;orthogonalLoop=1;jettySize=auto;html=1;exitX=0;exitY=0.5;exitDx=0;exitDy=0;entryX=0.5;entryY=0;entryDx=0;entryDy=0;" parent="1" source="piuvEJgIPPBP0Wa2WV8D-43" target="piuvEJgIPPBP0Wa2WV8D-62" edge="1">
          <mxGeometry relative="1" as="geometry" />
        </mxCell>
        <mxCell id="piuvEJgIPPBP0Wa2WV8D-42" style="edgeStyle=orthogonalEdgeStyle;rounded=0;orthogonalLoop=1;jettySize=auto;html=1;exitX=1;exitY=0.5;exitDx=0;exitDy=0;" parent="1" source="piuvEJgIPPBP0Wa2WV8D-43" target="piuvEJgIPPBP0Wa2WV8D-64" edge="1">
          <mxGeometry relative="1" as="geometry" />
        </mxCell>
        <mxCell id="piuvEJgIPPBP0Wa2WV8D-43" value="deploy&lt;br&gt;发布" style="rhombus;whiteSpace=wrap;html=1;fillColor=#fad9d5;strokeColor=#ae4132;" parent="1" vertex="1">
          <mxGeometry x="380" y="690" width="80" height="80" as="geometry" />
        </mxCell>
        <mxCell id="piuvEJgIPPBP0Wa2WV8D-44" style="edgeStyle=orthogonalEdgeStyle;rounded=0;orthogonalLoop=1;jettySize=auto;html=1;exitX=0.5;exitY=1;exitDx=0;exitDy=0;" parent="1" source="piuvEJgIPPBP0Wa2WV8D-45" edge="1">
          <mxGeometry relative="1" as="geometry">
            <mxPoint x="420" y="400" as="targetPoint" />
          </mxGeometry>
        </mxCell>
        <mxCell id="piuvEJgIPPBP0Wa2WV8D-45" value="读取&lt;br&gt;.gitlab-ci.yml" style="rhombus;whiteSpace=wrap;html=1;fillColor=#f5f5f5;fontColor=#333333;strokeColor=#666666;" parent="1" vertex="1">
          <mxGeometry x="355" y="340" width="130" height="40" as="geometry" />
        </mxCell>
        <mxCell id="piuvEJgIPPBP0Wa2WV8D-46" value="" style="edgeStyle=orthogonalEdgeStyle;rounded=0;orthogonalLoop=1;jettySize=auto;html=1;exitX=0.5;exitY=1;exitDx=0;exitDy=0;endArrow=none;" parent="1" target="piuvEJgIPPBP0Wa2WV8D-45" edge="1">
          <mxGeometry relative="1" as="geometry">
            <mxPoint x="419.5" y="350" as="targetPoint" />
            <mxPoint x="419.5" y="320" as="sourcePoint" />
          </mxGeometry>
        </mxCell>
        <mxCell id="piuvEJgIPPBP0Wa2WV8D-47" style="edgeStyle=orthogonalEdgeStyle;rounded=0;orthogonalLoop=1;jettySize=auto;html=1;exitX=0.5;exitY=1;exitDx=0;exitDy=0;entryX=0.5;entryY=0;entryDx=0;entryDy=0;fillColor=#fad9d5;strokeColor=#ae4132;" parent="1" source="piuvEJgIPPBP0Wa2WV8D-49" target="piuvEJgIPPBP0Wa2WV8D-37" edge="1">
          <mxGeometry relative="1" as="geometry" />
        </mxCell>
        <mxCell id="piuvEJgIPPBP0Wa2WV8D-49" value="pre&lt;br&gt;前置操作" style="rhombus;whiteSpace=wrap;html=1;fillColor=#fad9d5;strokeColor=#ae4132;" parent="1" vertex="1">
          <mxGeometry x="380" y="400" width="80" height="80" as="geometry" />
        </mxCell>
        <mxCell id="piuvEJgIPPBP0Wa2WV8D-50" style="edgeStyle=orthogonalEdgeStyle;rounded=0;orthogonalLoop=1;jettySize=auto;html=1;exitX=1;exitY=0.5;exitDx=0;exitDy=0;fillColor=#fad9d5;strokeColor=#ae4132;" parent="1" edge="1">
          <mxGeometry relative="1" as="geometry">
            <mxPoint x="480" y="440" as="targetPoint" />
            <mxPoint x="460" y="440" as="sourcePoint" />
          </mxGeometry>
        </mxCell>
        <mxCell id="piuvEJgIPPBP0Wa2WV8D-52" style="edgeStyle=orthogonalEdgeStyle;rounded=0;orthogonalLoop=1;jettySize=auto;html=1;exitX=1;exitY=0.5;exitDx=0;exitDy=0;entryX=0;entryY=0.5;entryDx=0;entryDy=0;fillColor=#d5e8d4;strokeColor=#82b366;" parent="1" source="piuvEJgIPPBP0Wa2WV8D-53" target="piuvEJgIPPBP0Wa2WV8D-54" edge="1">
          <mxGeometry relative="1" as="geometry" />
        </mxCell>
        <mxCell id="piuvEJgIPPBP0Wa2WV8D-53" value="SSH校验" style="triangle;whiteSpace=wrap;html=1;fillColor=#d5e8d4;strokeColor=#82b366;" parent="1" vertex="1">
          <mxGeometry x="480" y="400" width="60" height="80" as="geometry" />
        </mxCell>
        <mxCell id="piuvEJgIPPBP0Wa2WV8D-54" value="拉取项目&lt;br&gt;仅新项目" style="triangle;whiteSpace=wrap;html=1;fillColor=#d5e8d4;strokeColor=#82b366;" parent="1" vertex="1">
          <mxGeometry x="560" y="400" width="60" height="80" as="geometry" />
        </mxCell>
        <mxCell id="piuvEJgIPPBP0Wa2WV8D-80" style="edgeStyle=orthogonalEdgeStyle;rounded=0;orthogonalLoop=1;jettySize=auto;html=1;exitX=1;exitY=0.5;exitDx=0;exitDy=0;entryX=0;entryY=0.5;entryDx=0;entryDy=0;fillColor=#d5e8d4;strokeColor=#82b366;" parent="1" source="piuvEJgIPPBP0Wa2WV8D-55" target="piuvEJgIPPBP0Wa2WV8D-79" edge="1">
          <mxGeometry relative="1" as="geometry" />
        </mxCell>
        <mxCell id="piuvEJgIPPBP0Wa2WV8D-55" value="拉取最新&lt;br&gt;代码" style="triangle;whiteSpace=wrap;html=1;fillColor=#d5e8d4;strokeColor=#82b366;" parent="1" vertex="1">
          <mxGeometry x="480" y="500" width="60" height="80" as="geometry" />
        </mxCell>
        <mxCell id="piuvEJgIPPBP0Wa2WV8D-56" style="edgeStyle=orthogonalEdgeStyle;rounded=0;orthogonalLoop=1;jettySize=auto;html=1;exitX=1;exitY=0.5;exitDx=0;exitDy=0;entryX=0;entryY=0.5;entryDx=0;entryDy=0;fillColor=#d5e8d4;strokeColor=#82b366;" parent="1" source="piuvEJgIPPBP0Wa2WV8D-57" target="piuvEJgIPPBP0Wa2WV8D-59" edge="1">
          <mxGeometry relative="1" as="geometry" />
        </mxCell>
        <mxCell id="piuvEJgIPPBP0Wa2WV8D-57" value="编译代码" style="triangle;whiteSpace=wrap;html=1;fillColor=#d5e8d4;strokeColor=#82b366;" parent="1" vertex="1">
          <mxGeometry x="480" y="595" width="60" height="80" as="geometry" />
        </mxCell>
        <mxCell id="piuvEJgIPPBP0Wa2WV8D-59" value="把文件&lt;br&gt;打压缩包" style="triangle;whiteSpace=wrap;html=1;fillColor=#d5e8d4;strokeColor=#82b366;" parent="1" vertex="1">
          <mxGeometry x="560" y="595" width="60" height="80" as="geometry" />
        </mxCell>
        <mxCell id="piuvEJgIPPBP0Wa2WV8D-61" style="edgeStyle=orthogonalEdgeStyle;rounded=0;orthogonalLoop=1;jettySize=auto;html=1;exitX=0.5;exitY=1;exitDx=0;exitDy=0;" parent="1" source="piuvEJgIPPBP0Wa2WV8D-62" edge="1">
          <mxGeometry relative="1" as="geometry">
            <mxPoint x="300" y="860" as="targetPoint" />
          </mxGeometry>
        </mxCell>
        <mxCell id="piuvEJgIPPBP0Wa2WV8D-62" value="dev&lt;br&gt;开发环境" style="rounded=1;whiteSpace=wrap;html=1;fillColor=#1ba1e2;fontColor=#ffffff;strokeColor=#006EAF;" parent="1" vertex="1">
          <mxGeometry x="240" y="780" width="120" height="60" as="geometry" />
        </mxCell>
        <mxCell id="piuvEJgIPPBP0Wa2WV8D-63" style="edgeStyle=orthogonalEdgeStyle;rounded=0;orthogonalLoop=1;jettySize=auto;html=1;exitX=0.5;exitY=1;exitDx=0;exitDy=0;" parent="1" source="piuvEJgIPPBP0Wa2WV8D-64" edge="1">
          <mxGeometry relative="1" as="geometry">
            <mxPoint x="540" y="860" as="targetPoint" />
          </mxGeometry>
        </mxCell>
        <mxCell id="piuvEJgIPPBP0Wa2WV8D-64" value="beta&lt;br&gt;测试环境&lt;br&gt;gama、online&lt;br&gt;环境等同" style="rounded=1;whiteSpace=wrap;html=1;fillColor=#1ba1e2;fontColor=#ffffff;strokeColor=#006EAF;" parent="1" vertex="1">
          <mxGeometry x="480" y="780" width="120" height="60" as="geometry" />
        </mxCell>
        <mxCell id="piuvEJgIPPBP0Wa2WV8D-65" style="edgeStyle=orthogonalEdgeStyle;rounded=0;orthogonalLoop=1;jettySize=auto;html=1;exitX=0.5;exitY=1;exitDx=0;exitDy=0;fillColor=#d5e8d4;strokeColor=#82b366;" parent="1" source="piuvEJgIPPBP0Wa2WV8D-66" edge="1">
          <mxGeometry relative="1" as="geometry">
            <mxPoint x="300" y="930" as="targetPoint" />
          </mxGeometry>
        </mxCell>
        <mxCell id="piuvEJgIPPBP0Wa2WV8D-66" value="建立预发布目录&lt;br&gt;把压缩包&lt;br&gt;拷贝到发布目录" style="shape=step;perimeter=stepPerimeter;whiteSpace=wrap;html=1;fixedSize=1;fillColor=#d5e8d4;strokeColor=#82b366;" parent="1" vertex="1">
          <mxGeometry x="240" y="860" width="120" height="50" as="geometry" />
        </mxCell>
        <mxCell id="piuvEJgIPPBP0Wa2WV8D-67" style="edgeStyle=orthogonalEdgeStyle;rounded=0;orthogonalLoop=1;jettySize=auto;html=1;exitX=0.5;exitY=1;exitDx=0;exitDy=0;entryX=0.5;entryY=0;entryDx=0;entryDy=0;fillColor=#d5e8d4;strokeColor=#82b366;" parent="1" source="piuvEJgIPPBP0Wa2WV8D-68" target="piuvEJgIPPBP0Wa2WV8D-69" edge="1">
          <mxGeometry relative="1" as="geometry" />
        </mxCell>
        <mxCell id="piuvEJgIPPBP0Wa2WV8D-68" value="解压" style="shape=step;perimeter=stepPerimeter;whiteSpace=wrap;html=1;fixedSize=1;fillColor=#d5e8d4;strokeColor=#82b366;" parent="1" vertex="1">
          <mxGeometry x="240" y="930" width="120" height="50" as="geometry" />
        </mxCell>
        <mxCell id="piuvEJgIPPBP0Wa2WV8D-69" value="替换原有&lt;br&gt;工程文件" style="shape=step;perimeter=stepPerimeter;whiteSpace=wrap;html=1;fixedSize=1;fillColor=#d5e8d4;strokeColor=#82b366;" parent="1" vertex="1">
          <mxGeometry x="240" y="1000" width="120" height="50" as="geometry" />
        </mxCell>
        <mxCell id="piuvEJgIPPBP0Wa2WV8D-70" value="SSH连接机器" style="shape=step;perimeter=stepPerimeter;whiteSpace=wrap;html=1;fixedSize=1;fillColor=#d5e8d4;strokeColor=#82b366;" parent="1" vertex="1">
          <mxGeometry x="480" y="860" width="120" height="50" as="geometry" />
        </mxCell>
        <mxCell id="piuvEJgIPPBP0Wa2WV8D-79" value="检测环境" style="triangle;whiteSpace=wrap;html=1;fillColor=#d5e8d4;strokeColor=#82b366;" parent="1" vertex="1">
          <mxGeometry x="560" y="500" width="60" height="80" as="geometry" />
        </mxCell>
        <mxCell id="piuvEJgIPPBP0Wa2WV8D-81" style="edgeStyle=orthogonalEdgeStyle;rounded=0;orthogonalLoop=1;jettySize=auto;html=1;exitX=0.5;exitY=1;exitDx=0;exitDy=0;entryX=0.5;entryY=0;entryDx=0;entryDy=0;fillColor=#d5e8d4;strokeColor=#82b366;" parent="1" target="piuvEJgIPPBP0Wa2WV8D-82" edge="1">
          <mxGeometry relative="1" as="geometry">
            <mxPoint x="300" y="1050" as="sourcePoint" />
          </mxGeometry>
        </mxCell>
        <mxCell id="piuvEJgIPPBP0Wa2WV8D-82" value="删除压缩包" style="shape=step;perimeter=stepPerimeter;whiteSpace=wrap;html=1;fixedSize=1;fillColor=#d5e8d4;strokeColor=#82b366;" parent="1" vertex="1">
          <mxGeometry x="240" y="1070" width="120" height="50" as="geometry" />
        </mxCell>
        <mxCell id="piuvEJgIPPBP0Wa2WV8D-83" style="edgeStyle=orthogonalEdgeStyle;rounded=0;orthogonalLoop=1;jettySize=auto;html=1;exitX=0.5;exitY=1;exitDx=0;exitDy=0;fillColor=#d5e8d4;strokeColor=#82b366;" parent="1" edge="1">
          <mxGeometry relative="1" as="geometry">
            <mxPoint x="540" y="930" as="targetPoint" />
            <mxPoint x="540" y="910" as="sourcePoint" />
          </mxGeometry>
        </mxCell>
        <mxCell id="piuvEJgIPPBP0Wa2WV8D-84" style="edgeStyle=orthogonalEdgeStyle;rounded=0;orthogonalLoop=1;jettySize=auto;html=1;exitX=0.5;exitY=1;exitDx=0;exitDy=0;fillColor=#d5e8d4;strokeColor=#82b366;" parent="1" source="piuvEJgIPPBP0Wa2WV8D-85" edge="1">
          <mxGeometry relative="1" as="geometry">
            <mxPoint x="540" y="1000" as="targetPoint" />
          </mxGeometry>
        </mxCell>
        <mxCell id="piuvEJgIPPBP0Wa2WV8D-85" value="建立预发布目录&lt;br&gt;把压缩包&lt;br&gt;拷贝到发布目录" style="shape=step;perimeter=stepPerimeter;whiteSpace=wrap;html=1;fixedSize=1;fillColor=#d5e8d4;strokeColor=#82b366;" parent="1" vertex="1">
          <mxGeometry x="480" y="930" width="120" height="50" as="geometry" />
        </mxCell>
        <mxCell id="piuvEJgIPPBP0Wa2WV8D-86" style="edgeStyle=orthogonalEdgeStyle;rounded=0;orthogonalLoop=1;jettySize=auto;html=1;exitX=0.5;exitY=1;exitDx=0;exitDy=0;entryX=0.5;entryY=0;entryDx=0;entryDy=0;fillColor=#d5e8d4;strokeColor=#82b366;" parent="1" source="piuvEJgIPPBP0Wa2WV8D-87" target="piuvEJgIPPBP0Wa2WV8D-88" edge="1">
          <mxGeometry relative="1" as="geometry" />
        </mxCell>
        <mxCell id="piuvEJgIPPBP0Wa2WV8D-87" value="解压" style="shape=step;perimeter=stepPerimeter;whiteSpace=wrap;html=1;fixedSize=1;fillColor=#d5e8d4;strokeColor=#82b366;" parent="1" vertex="1">
          <mxGeometry x="480" y="1000" width="120" height="50" as="geometry" />
        </mxCell>
        <mxCell id="piuvEJgIPPBP0Wa2WV8D-88" value="替换原有&lt;br&gt;工程文件" style="shape=step;perimeter=stepPerimeter;whiteSpace=wrap;html=1;fixedSize=1;fillColor=#d5e8d4;strokeColor=#82b366;" parent="1" vertex="1">
          <mxGeometry x="480" y="1070" width="120" height="50" as="geometry" />
        </mxCell>
        <mxCell id="piuvEJgIPPBP0Wa2WV8D-89" style="edgeStyle=orthogonalEdgeStyle;rounded=0;orthogonalLoop=1;jettySize=auto;html=1;exitX=0.5;exitY=1;exitDx=0;exitDy=0;entryX=0.5;entryY=0;entryDx=0;entryDy=0;fillColor=#d5e8d4;strokeColor=#82b366;" parent="1" target="piuvEJgIPPBP0Wa2WV8D-90" edge="1">
          <mxGeometry relative="1" as="geometry">
            <mxPoint x="540" y="1120" as="sourcePoint" />
          </mxGeometry>
        </mxCell>
        <mxCell id="piuvEJgIPPBP0Wa2WV8D-90" value="删除压缩包" style="shape=step;perimeter=stepPerimeter;whiteSpace=wrap;html=1;fixedSize=1;fillColor=#d5e8d4;strokeColor=#82b366;" parent="1" vertex="1">
          <mxGeometry x="480" y="1140" width="120" height="50" as="geometry" />
        </mxCell>
      </root>
    </mxGraphModel>
  </diagram>
</mxfile>
